<?xml version="1.0" encoding="UTF-8" standalone="no"?>
<!-- Created with Inkscape (http://www.inkscape.org/) -->

<svg
   xmlns:dc="http://purl.org/dc/elements/1.1/"
   xmlns:cc="http://creativecommons.org/ns#"
   xmlns:rdf="http://www.w3.org/1999/02/22-rdf-syntax-ns#"
   xmlns:svg="http://www.w3.org/2000/svg"
   xmlns="http://www.w3.org/2000/svg"
   xmlns:sodipodi="http://sodipodi.sourceforge.net/DTD/sodipodi-0.dtd"
   xmlns:inkscape="http://www.inkscape.org/namespaces/inkscape"
   width="256"
   height="256"
   viewBox="0 0 256 256"
   id="svg2"
   version="1.1"
   inkscape:version="0.92.3 (2405546, 2018-03-11)"
   sodipodi:docname="phipi_8.svg"
   inkscape:export-filename="D:\synodrive\doc\logo\wiki_logo_512x512_192dpi.png"
   inkscape:export-xdpi="192"
   inkscape:export-ydpi="192">
  <defs
     id="defs4" />
  <sodipodi:namedview
     id="base"
     pagecolor="#ffffff"
     bordercolor="#666666"
     borderopacity="1.0"
     inkscape:pageopacity="0"
     inkscape:pageshadow="2"
     inkscape:zoom="2.8284272"
     inkscape:cx="125.21215"
     inkscape:cy="131.57819"
     inkscape:document-units="px"
     inkscape:current-layer="layer1"
     showgrid="false"
     units="px"
     inkscape:object-nodes="true"
     inkscape:snap-page="false"
     inkscape:window-width="3440"
     inkscape:window-height="1361"
     inkscape:window-x="-9"
     inkscape:window-y="-9"
     inkscape:window-maximized="1"
     inkscape:snap-text-baseline="false"
     inkscape:snap-bbox="true"
     inkscape:bbox-nodes="true"
     inkscape:object-paths="false"
     inkscape:snap-bbox-midpoints="false"
     inkscape:snap-bbox-edge-midpoints="true"
     inkscape:bbox-paths="true"
     inkscape:snap-smooth-nodes="true"
     inkscape:snap-intersection-paths="true"
     inkscape:snap-nodes="true" />
  <metadata
     id="metadata7">
    <rdf:RDF>
      <cc:Work
         rdf:about="">
        <dc:format>image/svg+xml</dc:format>
        <dc:type
           rdf:resource="http://purl.org/dc/dcmitype/StillImage" />
        <dc:title></dc:title>
      </cc:Work>
    </rdf:RDF>
  </metadata>
  <g
     inkscape:label="Calque 1"
     inkscape:groupmode="layer"
     id="layer1"
     transform="translate(0,-796.36216)">
    <rect
       style="opacity:1;fill:#333333;fill-opacity:1;stroke:none;stroke-width:0.56224757;stroke-linejoin:miter;stroke-miterlimit:4;stroke-dasharray:none;stroke-opacity:1"
       id="rect4525"
       width="127.42522"
       height="244.40578"
       x="64.287392"
       y="807.95642" />
    <text
       xml:space="preserve"
       style="font-style:normal;font-weight:normal;font-size:40px;line-height:125%;font-family:GreekS;letter-spacing:0px;word-spacing:0px;fill:#000000;fill-opacity:1;stroke:none;stroke-width:1px;stroke-linecap:butt;stroke-linejoin:miter;stroke-opacity:1;-inkscape-font-specification:'GreekS, Normal';font-stretch:normal;font-variant:normal;text-anchor:start;text-align:start;writing-mode:lr;"
       x="70.710678"
       y="911.95099"
       id="text4136"><tspan
         sodipodi:role="line"
         id="tspan4140" /></text>
    <rect
       style="opacity:0;fill:#000000;fill-opacity:1;stroke:none;stroke-width:1;stroke-linejoin:miter;stroke-miterlimit:4;stroke-dasharray:none;stroke-opacity:1"
       id="rect4152"
       width="10.830605"
       height="50.09705"
       x="123.61742"
       y="1002.1071"
       ry="5.4153023" />
    <path
       inkscape:connector-curvature="0"
       style="font-style:normal;font-weight:normal;font-size:2050.27807617px;font-family:'Times New Roman';fill:#d16848;fill-opacity:1;stroke:#d16848;stroke-width:4.89649916;stroke-linecap:butt;stroke-linejoin:miter;stroke-miterlimit:4;stroke-dasharray:none;stroke-opacity:1"
       d="M 184.11771,821.16062 H 71.882279 v 184.67988 c -7.3e-5,15.9402 2.051933,26.0515 6.156001,30.3339 4.103922,4.2825 13.709639,6.6616 28.8172,7.1374 v 6.6021 H 2.6496329 v -6.6021 c 14.9884971,-0.4758 24.5644781,-2.8549 28.7279811,-7.1374 4.163449,-4.2824 6.245172,-14.3937 6.245209,-30.3339 V 852.02981 c -3.7e-5,-15.93994 -2.08176,-26.05124 -6.245209,-30.3339 -4.163503,-4.28219 -13.739484,-6.66131 -28.7279811,-7.13737 v -6.6021 H 253.35037 v 6.6021 c -14.98875,0.47606 -24.56475,2.85518 -28.72798,7.13737 -4.16372,4.28266 -6.24545,14.39396 -6.24523,30.3339 v 153.81069 c 0,15.9402 2.08151,26.0515 6.24523,30.3339 4.16323,4.2825 13.73923,6.6616 28.72798,7.1374 v 6.6021 H 149.32296 v -6.6021 c 14.86936,-0.4758 24.38587,-2.8252 28.54952,-7.0482 4.1633,-4.2229 6.24505,-14.364 6.24523,-30.4231 z"
       id="text2175-4"
       sodipodi:nodetypes="ccccccccccccccccccscccccccc" />
    <path
       sodipodi:nodetypes="ccccccccccccccccscccccccccc"
       inkscape:connector-curvature="0"
       style="font-style:normal;font-weight:normal;font-size:2050.27807617px;font-family:'Times New Roman';fill:#55aacc;fill-opacity:1;stroke:none;stroke-width:0.13867564px;stroke-linecap:butt;stroke-linejoin:miter;stroke-opacity:1"
       d="m 111.82629,860.63806 v 4.99788 c -20.454348,5.27566 -30.681435,24.61927 -30.681435,58.0309 0,36.18836 12.726048,57.47559 38.178225,63.86175 v -80.66017 c -1e-4,-11.75417 0.74036,-20.33847 2.22126,-25.75295 1.48082,-5.41425 4.74332,-10.18073 9.7875,-14.29948 5.0441,-4.11849 11.12952,-6.1778 18.25617,-6.17793 12.49452,1.3e-4 24.08689,5.87726 34.77692,17.63141 10.68984,11.75436 16.03471,27.07191 16.0349,45.95269 0,17.67772 -5.48396,33.45804 -16.45139,47.34099 -10.96773,13.883 -27.51166,21.79629 -49.63179,23.73991 v 57.05914 H 119.32308 V 995.30306 C 100.07194,993.63711 84.638676,986.4411 73.023329,973.71501 61.407855,960.98897 55.600176,944.44509 55.600176,924.08332 c 0,-18.32546 5.275539,-33.29593 15.826607,-44.91147 10.55101,-11.61531 24.017484,-17.79323 40.399507,-18.53379 z m 22.49036,126.89053 c 29.15425,-4.34999 43.73133,-23.18457 43.73153,-56.50376 -2e-4,-15.36377 -3.1239,-28.2518 -9.37111,-38.66413 -6.2474,-10.41213 -13.5823,-15.61825 -22.00451,-15.61837 -3.05435,1.2e-4 -5.62266,1.08762 -7.70503,3.26251 -2.08257,2.17511 -3.37832,4.74346 -3.88724,7.70505 -0.50913,2.96181 -0.76364,8.79266 -0.76364,17.49257 z"
       id="text2175" />
  </g>
</svg>
